name rise49.8558peak67.6521fall70.3087.mot
datacolumns 19
datarows 29
range 12.70662100000000 12.75328100000000
endheader
time	ground_force1_vx	ground_force1_vy	ground_force1_vz	ground_force1_px	ground_force1_py	ground_force1_pz	ground_force2_vx	ground_force2_vy	ground_force2_vz	ground_force2_px	ground_force2_py	ground_force2_pz	ground_torque1_x	ground_torque1_y	ground_torque1_z	ground_torque2_x	ground_torque2_y	ground_torque2_z	
12.70662100000000	-4.45096200000000	40.11638300000000	-8.74115200000000	0.38267900000000	0.00000000000000	0.09457100000000	-55.87919200000000	805.07160799999997	-63.74539200000000	0.19608600000000	0.00000000000000	-0.10733500000000	0.00000000000000	-7.79955200000000	0.00000000000000	0.00000000000000	-34.61362400000000	0.00000000000000	
12.70828500000000	-4.90831800000000	46.87542700000000	-9.89081900000000	0.38629800000000	0.00000000000000	0.09544900000000	-56.32149000000000	803.15096500000004	-63.58037400000000	0.19497100000000	0.00000000000000	-0.10733900000000	0.00000000000000	-8.86649300000000	0.00000000000000	0.00000000000000	-34.50518800000000	0.00000000000000	
12.70994900000000	-5.28596300000000	53.67745200000000	-10.95630800000000	0.38980400000000	0.00000000000000	0.09624100000000	-56.76141000000000	801.10918000000004	-63.39414800000000	0.19386300000000	0.00000000000000	-0.10733900000000	0.00000000000000	-9.86877500000000	0.00000000000000	0.00000000000000	-34.39057500000000	0.00000000000000	
12.71161800000000	-5.57065100000000	60.42996600000000	-11.91403700000000	0.39320900000000	0.00000000000000	0.09696100000000	-57.19894000000000	798.94569700000000	-63.18645400000000	0.19276400000000	0.00000000000000	-0.10733600000000	0.00000000000000	-10.78492700000000	0.00000000000000	0.00000000000000	-34.26987800000000	0.00000000000000	
12.71328600000000	-5.75374900000000	67.06337900000000	-12.74768300000000	0.39652200000000	0.00000000000000	0.09762100000000	-57.63406500000000	796.66002100000003	-62.95704300000000	0.19167500000000	0.00000000000000	-0.10732800000000	0.00000000000000	-11.59977800000000	0.00000000000000	0.00000000000000	-34.14319300000000	0.00000000000000	
12.71495600000000	-5.83123600000000	73.53303300000000	-13.44836300000000	0.39975200000000	0.00000000000000	0.09822900000000	-58.06676600000000	794.25171999999998	-62.70568100000000	0.19059600000000	0.00000000000000	-0.10731700000000	0.00000000000000	-12.30471700000000	0.00000000000000	0.00000000000000	-34.01062200000000	0.00000000000000	
12.71661700000000	-5.80332400000000	79.81884900000000	-14.01419000000000	0.40290500000000	0.00000000000000	0.09879300000000	-58.49701800000000	791.72042199999999	-62.43215100000000	0.18952800000000	0.00000000000000	-0.10730100000000	0.00000000000000	-12.89738800000000	0.00000000000000	0.00000000000000	-33.87226900000000	0.00000000000000	
12.71828500000000	-5.67380000000000	85.92300700000000	-14.44932200000000	0.40598700000000	0.00000000000000	0.09931800000000	-58.92479000000000	789.06581500000004	-62.13625300000000	0.18847400000000	0.00000000000000	-0.10728000000000	0.00000000000000	-13.38091500000000	0.00000000000000	0.00000000000000	-33.72824100000000	0.00000000000000	
12.71995000000000	-5.44919500000000	91.86620700000000	-14.76269000000000	0.40900400000000	0.00000000000000	0.09981000000000	-59.35004300000000	786.28764100000001	-61.81780300000000	0.18743300000000	0.00000000000000	-0.10725500000000	0.00000000000000	-13.76281400000000	0.00000000000000	0.00000000000000	-33.57864800000000	0.00000000000000	
12.72161600000000	-5.13787500000000	97.68306200000001	-14.96655800000000	0.41195900000000	0.00000000000000	0.10027200000000	-59.77272700000000	783.38570200000004	-61.47663400000000	0.18640700000000	0.00000000000000	-0.10722400000000	0.00000000000000	-14.05372400000000	0.00000000000000	0.00000000000000	-33.42360100000000	0.00000000000000	
12.72328300000000	-4.74914300000000	103.41715300000000	-15.07505900000000	0.41485600000000	0.00000000000000	0.10070900000000	-60.19278500000000	780.35985000000005	-61.11259900000000	0.18539700000000	0.00000000000000	-0.10718900000000	0.00000000000000	-14.26610600000000	0.00000000000000	0.00000000000000	-33.26321300000000	0.00000000000000	
12.72494800000000	-4.29242600000000	109.11621000000000	-15.10283600000000	0.41769700000000	0.00000000000000	0.10112300000000	-60.61014600000000	777.20999200000006	-60.72557300000000	0.18440500000000	0.00000000000000	-0.10714700000000	0.00000000000000	-14.41301000000000	0.00000000000000	0.00000000000000	-33.09759800000000	0.00000000000000	
12.72662300000000	-3.77659400000000	114.82778399999999	-15.06388300000000	0.42048700000000	0.00000000000000	0.10151600000000	-61.02472600000000	773.93608800000004	-60.31544800000000	0.18343000000000	0.00000000000000	-0.10710000000000	0.00000000000000	-14.50700300000000	0.00000000000000	0.00000000000000	-32.92686900000000	0.00000000000000	
12.72828200000000	-3.20944500000000	120.59565900000000	-14.97063300000000	0.42322700000000	0.00000000000000	0.10189200000000	-61.43642600000000	770.53814499999999	-59.88214000000000	0.18247500000000	0.00000000000000	-0.10704800000000	0.00000000000000	-14.55931500000000	0.00000000000000	0.00000000000000	-32.75114100000000	0.00000000000000	
12.72995500000000	-2.59736100000000	126.45716200000000	-14.83332700000000	0.42591900000000	0.00000000000000	0.10225200000000	-61.84513300000000	767.01622099999997	-59.42558800000000	0.18154100000000	0.00000000000000	-0.10698900000000	0.00000000000000	-14.57923500000000	0.00000000000000	0.00000000000000	-32.57052400000000	0.00000000000000	
12.73162300000000	-1.94514600000000	132.44140800000000	-14.65966000000000	0.42856500000000	0.00000000000000	0.10259800000000	-62.25071200000000	763.37042199999996	-58.94575500000000	0.18062700000000	0.00000000000000	-0.10692400000000	0.00000000000000	-14.57375200000000	0.00000000000000	0.00000000000000	-32.38513100000000	0.00000000000000	
12.73328600000000	-1.25600100000000	138.56845000000001	-14.45468400000000	0.43116500000000	0.00000000000000	0.10293000000000	-62.65301200000000	759.60090100000002	-58.44262900000000	0.17973600000000	0.00000000000000	-0.10685200000000	0.00000000000000	-14.54743700000000	0.00000000000000	0.00000000000000	-32.19507200000000	0.00000000000000	
12.73495100000000	-0.53164400000000	144.84923499999999	-14.22093400000000	0.43372200000000	0.00000000000000	0.10325000000000	-63.05185900000000	755.70785799999999	-57.91622400000000	0.17886900000000	0.00000000000000	-0.10677400000000	0.00000000000000	-14.50252500000000	0.00000000000000	0.00000000000000	-32.00045100000000	0.00000000000000	
12.73662100000000	0.22749000000000	151.28621999999999	-13.95870800000000	0.43623600000000	0.00000000000000	0.10356000000000	-63.44705500000000	751.69153600000004	-57.36658200000000	0.17802600000000	0.00000000000000	-0.10668900000000	0.00000000000000	-14.43916000000000	0.00000000000000	0.00000000000000	-31.80137200000000	0.00000000000000	
12.73828600000000	1.02197400000000	157.87448000000001	-13.66648000000000	0.43870800000000	0.00000000000000	0.10386000000000	-63.83838100000000	747.55222500000002	-56.79377500000000	0.17720700000000	0.00000000000000	-0.10659800000000	0.00000000000000	-14.35575100000000	0.00000000000000	0.00000000000000	-31.59793400000000	0.00000000000000	
12.73995300000000	1.85309200000000	164.60313600000001	-13.34137100000000	0.44113900000000	0.00000000000000	0.10415100000000	-64.22558600000001	743.29025600000000	-56.19790100000000	0.17641500000000	0.00000000000000	-0.10649900000000	0.00000000000000	-14.24939600000000	0.00000000000000	0.00000000000000	-31.39023200000000	0.00000000000000	
12.74161900000000	2.72253300000000	171.45693900000001	-12.97963200000000	0.44352800000000	0.00000000000000	0.10443300000000	-64.60839400000000	738.90600700000005	-55.57909200000000	0.17565000000000	0.00000000000000	-0.10639300000000	0.00000000000000	-14.11633500000000	0.00000000000000	0.00000000000000	-31.17835300000000	0.00000000000000	
12.74328300000000	3.63210800000000	178.41786099999999	-12.57711900000000	0.44587700000000	0.00000000000000	0.10470800000000	-64.98649800000000	734.39989400000002	-54.93751300000000	0.17491300000000	0.00000000000000	-0.10627900000000	0.00000000000000	-13.95237800000000	0.00000000000000	0.00000000000000	-30.96238300000000	0.00000000000000	
12.74494700000000	4.58350500000000	185.46657300000001	-12.12970600000000	0.44818400000000	0.00000000000000	0.10497600000000	-65.35955900000000	729.77237800000000	-54.27335800000000	0.17420400000000	0.00000000000000	-0.10615800000000	0.00000000000000	-13.75330500000000	0.00000000000000	0.00000000000000	-30.74239700000000	0.00000000000000	
12.74661600000000	5.57808700000000	192.58373399999999	-11.63362900000000	0.45045000000000	0.00000000000000	0.10523700000000	-65.72720300000000	725.02395999999999	-53.58685800000000	0.17352400000000	0.00000000000000	-0.10602900000000	0.00000000000000	-13.51518600000000	0.00000000000000	0.00000000000000	-30.51846400000000	0.00000000000000	
12.74828100000000	6.61675300000000	199.75101900000001	-11.08574900000000	0.45267500000000	0.00000000000000	0.10549100000000	-66.08902300000000	720.15517999999997	-52.87827900000000	0.17287400000000	0.00000000000000	-0.10589300000000	0.00000000000000	-13.23464100000000	0.00000000000000	0.00000000000000	-30.29064800000000	0.00000000000000	
12.74994700000000	7.69984500000000	206.95187200000001	-10.48372500000000	0.45485900000000	0.00000000000000	0.10574000000000	-66.44457500000000	715.16661899999997	-52.14792100000000	0.17225500000000	0.00000000000000	-0.10574800000000	0.00000000000000	-12.90901100000000	0.00000000000000	0.00000000000000	-30.05900200000000	0.00000000000000	
12.75161500000000	8.82711000000000	214.17198099999999	-9.82610500000000	0.45700000000000	0.00000000000000	0.10598300000000	-66.79337700000001	710.05889900000000	-51.39612200000000	0.17166600000000	0.00000000000000	-0.10559600000000	0.00000000000000	-12.53645300000000	0.00000000000000	0.00000000000000	-29.82357300000000	0.00000000000000	
12.75328100000000	9.99770500000000	221.39949500000000	-9.11234500000000	0.45909900000000	0.00000000000000	0.10622000000000	-67.13490600000000	704.83267599999999	-50.62325800000000	0.17110800000000	0.00000000000000	-0.10543600000000	0.00000000000000	-12.11596900000000	0.00000000000000	0.00000000000000	-29.58439700000000	0.00000000000000	
